<?xml version="1.0" encoding="UTF-8" standalone="no"?>
<svg
   xmlns:dc="http://purl.org/dc/elements/1.1/"
   xmlns:cc="http://creativecommons.org/ns#"
   xmlns:rdf="http://www.w3.org/1999/02/22-rdf-syntax-ns#"
   xmlns:svg="http://www.w3.org/2000/svg"
   xmlns="http://www.w3.org/2000/svg"
   xmlns:sodipodi="http://sodipodi.sourceforge.net/DTD/sodipodi-0.dtd"
   xmlns:inkscape="http://www.inkscape.org/namespaces/inkscape"
   sodipodi:docname="icon.svg"
   inkscape:version="1.0 (4035a4fb49, 2020-05-01)"
   id="svg8"
   version="1.1"
   viewBox="0 0 135.46666 135.46666"
   height="512"
   width="512">
  <defs
     id="defs2" />
  <sodipodi:namedview
     inkscape:window-maximized="0"
     inkscape:window-y="0"
     inkscape:window-x="1152"
     inkscape:window-height="1377"
     inkscape:window-width="1400"
     units="px"
     showgrid="false"
     inkscape:document-rotation="0"
     inkscape:current-layer="layer1"
     inkscape:document-units="px"
     inkscape:cy="212.33481"
     inkscape:cx="291.22608"
     inkscape:zoom="1.4"
     inkscape:pageshadow="2"
     inkscape:pageopacity="0.0"
     borderopacity="1.0"
     bordercolor="#666666"
     pagecolor="#ffffff"
     id="base" />
  <metadata
     id="metadata5">
    <rdf:RDF>
      <cc:Work
         rdf:about="">
        <dc:format>image/svg+xml</dc:format>
        <dc:type
           rdf:resource="http://purl.org/dc/dcmitype/StillImage" />
        <dc:title></dc:title>
      </cc:Work>
    </rdf:RDF>
  </metadata>
  <g
     id="layer1"
     inkscape:groupmode="layer"
     inkscape:label="Layer 1">
    <ellipse
       ry="23.434523"
       rx="25.418898"
       cy="67.73333"
       cx="67.73333"
       id="path12"
       style="fill:#ffffff;stroke:none;stroke-width:7.06501;stroke-linejoin:round;stroke-miterlimit:4;stroke-dasharray:none;stroke-opacity:1" />
    <circle
       r="40.065475"
       cy="76.200005"
       cx="67.73333"
       id="path18"
       style="fill:#dde9af;stroke:none;stroke-width:8.94198;stroke-linejoin:round;stroke-miterlimit:4;stroke-dasharray:none;stroke-opacity:1" />
    <circle
       r="15.024552"
       cy="55.279026"
       cx="67.73333"
       id="path24"
       style="fill:#008000;stroke:none;stroke-width:7.06501;stroke-linejoin:round;stroke-miterlimit:4;stroke-dasharray:none;stroke-opacity:1" />
    <ellipse
       ry="20.372913"
       rx="18.615326"
       cy="92.982132"
       cx="67.73333"
       id="path28"
       style="fill:#008000;stroke:none;stroke-width:7.06501;stroke-linejoin:round;stroke-miterlimit:4;stroke-dasharray:none;stroke-opacity:1" />
    <circle
       r="9.0714283"
       cy="119.25148"
       cx="37.797615"
       id="path30"
       style="fill:#6f7c91;stroke:none;stroke-width:7.06501;stroke-linejoin:round;stroke-miterlimit:4;stroke-dasharray:none;stroke-opacity:1" />
    <circle
       style="fill:#6f7c91;stroke:none;stroke-width:7.06501;stroke-linejoin:round;stroke-miterlimit:4;stroke-dasharray:none;stroke-opacity:1"
       id="path30-3"
       cx="98.084808"
       cy="119.25148"
       r="9.0714283" />
    <circle
       r="17.008928"
       cy="17.424694"
       cx="67.73333"
       id="path47"
       style="fill:#6f7c91;stroke:none;stroke-width:7.06501;stroke-linejoin:round;stroke-miterlimit:4;stroke-dasharray:none;stroke-opacity:1" />
    <path
       transform="scale(0.26458332)"
       id="path55"
       d="M 112.36237,430.20938 C 111.80607,428.87766 92.982508,382.46665 70.532221,327.07379 46.188221,267.00847 29.945535,226.02609 30.28838,225.53341 31.942372,223.15658 192.16359,79.531915 192.59157,80.04243 c 0.27794,0.331534 1.0607,2.441061 1.73947,4.687839 1.45951,4.831072 3.98114,10.513596 6.4325,14.495749 l 1.76459,2.866512 -69.98021,65.97676 c -38.489121,36.28722 -69.838871,66.33658 -69.666114,66.77635 0.172756,0.43976 16.131759,41.29958 35.464453,90.79958 19.332691,49.5 35.315451,90.40179 35.517231,90.89286 0.20178,0.49107 -0.0234,0.89285 -0.50027,0.89285 -1.78629,0 -9.7562,4.29033 -12.77288,6.87585 -1.72152,1.47547 -4.0495,3.95195 -5.17328,5.50329 l -2.04325,2.82061 z"
       style="fill:#535d6c;stroke:none;stroke-width:19.0731;stroke-linejoin:round;stroke-miterlimit:4;stroke-dasharray:none;stroke-opacity:1" />
    <path
       style="fill:#535d6c;stroke:none;stroke-width:5.04642;stroke-linejoin:round;stroke-miterlimit:4;stroke-dasharray:none;stroke-opacity:1"
       d="m 105.58018,114.03974 c 0.14719,-0.35235 5.12759,-12.63193 11.06756,-27.287957 6.44102,-15.892282 10.73856,-26.735536 10.64785,-26.865891 -0.43762,-0.628869 -42.82948,-38.62956 -42.942716,-38.494486 -0.07354,0.08772 -0.280644,0.645864 -0.460235,1.240324 -0.386162,1.278221 -1.053343,2.781722 -1.701932,3.835333 l -0.466882,0.758431 18.515595,17.45635 c 10.18358,9.600994 18.4782,17.551553 18.43249,17.667909 -0.0457,0.116353 -4.26819,10.92718 -9.3833,24.024054 -5.11511,13.096871 -9.343878,23.918813 -9.397266,24.048733 -0.05339,0.12993 0.0062,0.23624 0.132366,0.23624 0.47262,0 2.58132,1.13515 3.37949,1.81923 0.45548,0.39039 1.07143,1.04562 1.36876,1.45608 l 0.54061,0.74629 z"
       id="path55-2" />
  </g>
</svg>
